<svg xmlns="http://www.w3.org/2000/svg" viewBox="0 0 1200 630">
  <defs>
    <linearGradient id="bg" x1="0%" y1="0%" x2="100%" y2="100%">
      <stop offset="0%" stop-color="#1e293b"/>
      <stop offset="100%" stop-color="#0f172a"/>
    </linearGradient>
    <linearGradient id="orangeGrad" x1="0%" y1="0%" x2="0%" y2="100%">
      <stop offset="0%" stop-color="#f97316"/>
      <stop offset="100%" stop-color="#ea580c"/>
    </linearGradient>
    <linearGradient id="orangeGrad2" x1="0%" y1="0%" x2="100%" y2="100%">
      <stop offset="0%" stop-color="#fb923c"/>
      <stop offset="100%" stop-color="#f97316"/>
    </linearGradient>
  </defs>

  <!-- Background -->
  <rect width="1200" height="630" fill="url(#bg)"/>

  <!-- Subtle grid dots -->
  <g opacity="0.05">
    <circle cx="50" cy="50" r="2" fill="white"/>
    <circle cx="150" cy="50" r="2" fill="white"/>
    <circle cx="250" cy="50" r="2" fill="white"/>
    <circle cx="350" cy="50" r="2" fill="white"/>
    <circle cx="450" cy="50" r="2" fill="white"/>
    <circle cx="550" cy="50" r="2" fill="white"/>
    <circle cx="650" cy="50" r="2" fill="white"/>
    <circle cx="750" cy="50" r="2" fill="white"/>
    <circle cx="850" cy="50" r="2" fill="white"/>
    <circle cx="950" cy="50" r="2" fill="white"/>
    <circle cx="1050" cy="50" r="2" fill="white"/>
    <circle cx="1150" cy="50" r="2" fill="white"/>
    <circle cx="50" cy="150" r="2" fill="white"/>
    <circle cx="150" cy="150" r="2" fill="white"/>
    <circle cx="250" cy="150" r="2" fill="white"/>
    <circle cx="350" cy="150" r="2" fill="white"/>
    <circle cx="450" cy="150" r="2" fill="white"/>
    <circle cx="550" cy="150" r="2" fill="white"/>
    <circle cx="650" cy="150" r="2" fill="white"/>
    <circle cx="750" cy="150" r="2" fill="white"/>
    <circle cx="850" cy="150" r="2" fill="white"/>
    <circle cx="950" cy="150" r="2" fill="white"/>
    <circle cx="1050" cy="150" r="2" fill="white"/>
    <circle cx="1150" cy="150" r="2" fill="white"/>
    <circle cx="50" cy="250" r="2" fill="white"/>
    <circle cx="150" cy="250" r="2" fill="white"/>
    <circle cx="250" cy="250" r="2" fill="white"/>
    <circle cx="350" cy="250" r="2" fill="white"/>
    <circle cx="450" cy="250" r="2" fill="white"/>
    <circle cx="550" cy="250" r="2" fill="white"/>
    <circle cx="650" cy="250" r="2" fill="white"/>
    <circle cx="750" cy="250" r="2" fill="white"/>
    <circle cx="850" cy="250" r="2" fill="white"/>
    <circle cx="950" cy="250" r="2" fill="white"/>
    <circle cx="1050" cy="250" r="2" fill="white"/>
    <circle cx="1150" cy="250" r="2" fill="white"/>
    <circle cx="50" cy="350" r="2" fill="white"/>
    <circle cx="150" cy="350" r="2" fill="white"/>
    <circle cx="250" cy="350" r="2" fill="white"/>
    <circle cx="350" cy="350" r="2" fill="white"/>
    <circle cx="450" cy="350" r="2" fill="white"/>
    <circle cx="550" cy="350" r="2" fill="white"/>
    <circle cx="650" cy="350" r="2" fill="white"/>
    <circle cx="750" cy="350" r="2" fill="white"/>
    <circle cx="850" cy="350" r="2" fill="white"/>
    <circle cx="950" cy="350" r="2" fill="white"/>
    <circle cx="1050" cy="350" r="2" fill="white"/>
    <circle cx="1150" cy="350" r="2" fill="white"/>
    <circle cx="50" cy="450" r="2" fill="white"/>
    <circle cx="150" cy="450" r="2" fill="white"/>
    <circle cx="250" cy="450" r="2" fill="white"/>
    <circle cx="350" cy="450" r="2" fill="white"/>
    <circle cx="450" cy="450" r="2" fill="white"/>
    <circle cx="550" cy="450" r="2" fill="white"/>
    <circle cx="650" cy="450" r="2" fill="white"/>
    <circle cx="750" cy="450" r="2" fill="white"/>
    <circle cx="850" cy="450" r="2" fill="white"/>
    <circle cx="950" cy="450" r="2" fill="white"/>
    <circle cx="1050" cy="450" r="2" fill="white"/>
    <circle cx="1150" cy="450" r="2" fill="white"/>
    <circle cx="50" cy="550" r="2" fill="white"/>
    <circle cx="150" cy="550" r="2" fill="white"/>
    <circle cx="250" cy="550" r="2" fill="white"/>
    <circle cx="350" cy="550" r="2" fill="white"/>
    <circle cx="450" cy="550" r="2" fill="white"/>
    <circle cx="550" cy="550" r="2" fill="white"/>
    <circle cx="650" cy="550" r="2" fill="white"/>
    <circle cx="750" cy="550" r="2" fill="white"/>
    <circle cx="850" cy="550" r="2" fill="white"/>
    <circle cx="950" cy="550" r="2" fill="white"/>
    <circle cx="1050" cy="550" r="2" fill="white"/>
    <circle cx="1150" cy="550" r="2" fill="white"/>
  </g>

  <!-- Decorative large circle background element -->
  <circle cx="600" cy="315" r="220" fill="none" stroke="#f97316" stroke-width="1" opacity="0.08"/>
  <circle cx="600" cy="315" r="280" fill="none" stroke="#f97316" stroke-width="0.5" opacity="0.05"/>

  <!-- 1. SUITCASE (center-left) -->
  <g transform="translate(180, 200)">
    <!-- Suitcase body -->
    <rect x="0" y="30" width="140" height="100" rx="10" fill="url(#orangeGrad)"/>
    <!-- Handle -->
    <rect x="45" y="5" width="50" height="30" rx="6" fill="none" stroke="#fb923c" stroke-width="6"/>
    <!-- Suitcase straps -->
    <rect x="0" y="65" width="140" height="6" fill="#ea580c" opacity="0.5"/>
    <rect x="0" y="85" width="140" height="6" fill="#ea580c" opacity="0.5"/>
    <!-- Buckle -->
    <rect x="60" y="60" width="20" height="16" rx="3" fill="white" opacity="0.9"/>
    <!-- Wheels -->
    <circle cx="25" cy="135" r="8" fill="#334155"/>
    <circle cx="115" cy="135" r="8" fill="#334155"/>
  </g>

  <!-- 2. HOUSE SHAPE (center) -->
  <g transform="translate(500, 160)">
    <!-- House roof -->
    <polygon points="100,0 200,80 0,80" fill="white" opacity="0.95"/>
    <!-- House body -->
    <rect x="15" y="80" width="170" height="120" fill="white" opacity="0.85"/>
    <!-- Door -->
    <rect x="75" y="120" width="50" height="80" rx="4" fill="#f97316"/>
    <!-- Door knob -->
    <circle cx="115" cy="165" r="4" fill="white"/>
    <!-- Windows -->
    <rect x="30" y="100" width="30" height="30" rx="3" fill="#1e293b" opacity="0.7"/>
    <rect x="140" y="100" width="30" height="30" rx="3" fill="#1e293b" opacity="0.7"/>
    <!-- Window cross left -->
    <line x1="45" y1="100" x2="45" y2="130" stroke="white" stroke-width="2" opacity="0.5"/>
    <line x1="30" y1="115" x2="60" y2="115" stroke="white" stroke-width="2" opacity="0.5"/>
    <!-- Window cross right -->
    <line x1="155" y1="100" x2="155" y2="130" stroke="white" stroke-width="2" opacity="0.5"/>
    <line x1="140" y1="115" x2="170" y2="115" stroke="white" stroke-width="2" opacity="0.5"/>
    <!-- Chimney -->
    <rect x="145" y="25" width="25" height="55" fill="white" opacity="0.7"/>
  </g>

  <!-- 3. AIRPLANE (top right) -->
  <g transform="translate(800, 100)">
    <!-- Fuselage -->
    <ellipse cx="100" cy="50" rx="90" ry="18" fill="url(#orangeGrad2)" transform="rotate(-15, 100, 50)"/>
    <!-- Wing -->
    <polygon points="80,45 120,45 140,90 60,90" fill="#f97316" opacity="0.8"/>
    <!-- Tail -->
    <polygon points="15,35 40,35 40,10" fill="#fb923c" opacity="0.9"/>
    <!-- Tail horizontal -->
    <polygon points="10,42 45,42 45,55 20,55" fill="#ea580c" opacity="0.7"/>
    <!-- Window line -->
    <circle cx="70" cy="43" r="4" fill="white" opacity="0.8"/>
    <circle cx="85" cy="41" r="4" fill="white" opacity="0.8"/>
    <circle cx="100" cy="40" r="4" fill="white" opacity="0.8"/>
    <circle cx="115" cy="39" r="4" fill="white" opacity="0.8"/>
    <circle cx="130" cy="38" r="4" fill="white" opacity="0.8"/>
    <!-- Nose -->
    <ellipse cx="188" cy="37" rx="12" ry="10" fill="#ea580c" transform="rotate(-15, 188, 37)"/>
  </g>

  <!-- 4. MAP PIN MARKER (bottom left) -->
  <g transform="translate(130, 380)">
    <!-- Pin outer shape -->
    <path d="M60,0 C93,0 120,27 120,60 C120,105 60,150 60,150 C60,150 0,105 0,60 C0,27 27,0 60,0 Z" fill="url(#orangeGrad)"/>
    <!-- Inner circle -->
    <circle cx="60" cy="58" r="28" fill="#1e293b"/>
    <!-- Center dot -->
    <circle cx="60" cy="58" r="12" fill="#fb923c"/>
  </g>

  <!-- 5. MOVING BOXES (bottom center-right) -->
  <g transform="translate(720, 320)">
    <!-- Large box back -->
    <rect x="80" y="20" width="130" height="110" rx="5" fill="white" opacity="0.7"/>
    <!-- Tape on back box -->
    <rect x="130" y="20" width="30" height="110" fill="#fb923c" opacity="0.3"/>
    <!-- Large box front -->
    <rect x="0" y="50" width="140" height="120" rx="5" fill="white" opacity="0.9"/>
    <!-- Tape on front box -->
    <rect x="55" y="50" width="30" height="120" fill="#f97316" opacity="0.3"/>
    <!-- Tape horizontal -->
    <rect x="0" y="95" width="140" height="25" fill="#f97316" opacity="0.2"/>
    <!-- Box flaps (open) -->
    <polygon points="0,50 -10,35 60,35 70,50" fill="white" opacity="0.75"/>
    <polygon points="70,50 60,35 140,35 140,50" fill="white" opacity="0.6"/>
    <!-- Small box on top -->
    <rect x="20" y="-10" width="80" height="60" rx="4" fill="#fb923c" opacity="0.9"/>
    <rect x="50" y="-10" width="20" height="60" fill="#ea580c" opacity="0.3"/>
  </g>

  <!-- 6. COMPASS ROSE (decorative, far right) -->
  <g transform="translate(1020, 300)">
    <!-- Outer ring -->
    <circle cx="60" cy="60" r="55" fill="none" stroke="white" stroke-width="2" opacity="0.3"/>
    <!-- Cardinal directions -->
    <polygon points="60,10 68,50 60,40 52,50" fill="#f97316" opacity="0.8"/>
    <polygon points="60,110 68,70 60,80 52,70" fill="white" opacity="0.5"/>
    <polygon points="10,60 50,52 40,60 50,68" fill="white" opacity="0.5"/>
    <polygon points="110,60 70,52 80,60 70,68" fill="white" opacity="0.5"/>
    <!-- Center -->
    <circle cx="60" cy="60" r="8" fill="#f97316"/>
    <circle cx="60" cy="60" r="4" fill="white"/>
  </g>

  <!-- Decorative corner accents -->
  <line x1="30" y1="30" x2="100" y2="30" stroke="#f97316" stroke-width="2" opacity="0.3"/>
  <line x1="30" y1="30" x2="30" y2="100" stroke="#f97316" stroke-width="2" opacity="0.3"/>
  <line x1="1170" y1="600" x2="1100" y2="600" stroke="#f97316" stroke-width="2" opacity="0.3"/>
  <line x1="1170" y1="600" x2="1170" y2="530" stroke="#f97316" stroke-width="2" opacity="0.3"/>
</svg>